<?xml version="1.0" encoding="UTF-8"?>
<svg id="Layer_1" xmlns="http://www.w3.org/2000/svg" viewBox="0 0 32 32">
  <defs>
    <style>
      .cls-1 {
        fill: #bcbec0;
      }
    </style>
  </defs>
  <path class="cls-1" d="M32,14.85v2.45c-.07.51-.12,1.02-.21,1.52-.67,3.8-2.45,6.97-5.34,9.5-2.17,1.9-4.68,3.1-7.51,3.64-.42.08-.45.06-.45-.34,0-3.49,0-6.98,0-10.47,0-.3.1-.41.4-.4.99.01,1.98,0,2.97,0,.3,0,.4-.12.44-.39.18-1.28.38-2.55.57-3.82.06-.42.06-.42-.37-.42-1.21,0-2.42,0-3.62,0-.22,0-.39-.02-.39-.31,0-.96-.03-1.93.01-2.89.05-1.35.77-2.12,2.1-2.31.71-.1,1.44-.03,2.15-.04.24,0,.36-.07.36-.34,0-1.1,0-2.2,0-3.3,0-.22-.08-.33-.3-.36-1.45-.19-2.89-.38-4.35-.19-1.58.2-2.91.87-3.85,2.2-.76,1.08-1.06,2.31-1.09,3.62-.03,1.15,0,2.31,0,3.46,0,.46,0,.47-.48.47-1.06,0-2.12,0-3.19,0-.29,0-.41.09-.4.4.01,1.28,0,2.56,0,3.84,0,.38.02.4.42.4,1.04,0,2.08,0,3.12,0,.52,0,.52,0,.52.52,0,3.42,0,6.84,0,10.25,0,.51-.01.52-.51.42-3.52-.7-6.49-2.38-8.9-5.06-1.94-2.16-3.19-4.66-3.79-7.51C.17,18.7.11,18,0,17.3,0,16.49,0,15.67,0,14.85c.08-.54.14-1.08.24-1.61C1.41,6.7,6.43,1.58,12.9.28,13.51.16,14.14.11,14.75,0,15.58,0,16.42,0,17.25,0c.41.06.82.11,1.23.17,6.42.96,11.81,6.07,13.16,12.44.16.74.24,1.49.35,2.23Z"/>
</svg>