<?xml version="1.0" encoding="UTF-8"?>
<svg id="Layer_1" xmlns="http://www.w3.org/2000/svg" viewBox="0 0 32 32">
  <defs>
    <style>
      .cls-1 {
        fill: #bcbec0;
      }
    </style>
  </defs>
  <path class="cls-1" d="M.06,17.31v-2.5c.11-.66.16-1.32.3-1.97C1.65,6.59,6.51,1.7,12.72.39c.67-.14,1.35-.21,2.03-.32.88,0,1.75,0,2.62,0,.24.03.47.07.71.1,6.68.83,12.2,5.87,13.63,12.46.16.72.23,1.46.35,2.19v2.5c-.06.41-.11.82-.17,1.23-.95,6.35-5.85,11.65-12.09,13.1-.82.19-1.66.29-2.49.41h-2.5c-.36-.05-.72-.09-1.08-.15-3.79-.59-6.99-2.3-9.57-5.14-1.89-2.09-3.14-4.52-3.75-7.27-.16-.72-.23-1.46-.35-2.19ZM5.17,16.2c.05,1.74-.07,3.57.15,5.4.3,2.58,2,4.49,4.53,5.08.73.17,1.48.23,2.23.24,2.52.05,5.04.05,7.56,0,.66-.01,1.31-.05,1.96-.13,2.46-.3,4.3-1.85,4.98-4.17.25-.86.33-1.74.33-2.63.02-2.28.02-4.56.02-6.84,0-.87-.03-1.75-.13-2.62-.31-2.56-1.95-4.44-4.43-5.06-.73-.18-1.48-.25-2.23-.26-3.01-.03-6.02-.11-9.03.06-1.14.06-2.22.35-3.19.98-1.75,1.14-2.5,2.84-2.65,4.85-.13,1.66-.07,3.33-.1,5.09Z"/>
  <path class="cls-1" d="M25.01,16.07c.04,1.6.06,3.21-.06,4.81-.08,1.07-.36,2.07-1.13,2.87-.81.83-1.83,1.14-2.94,1.2-2.97.18-5.93.1-8.9.05-.51,0-1.02-.05-1.52-.16-1.82-.38-2.93-1.53-3.21-3.37-.07-.48-.12-.97-.13-1.46-.07-2.62-.09-5.25,0-7.87.02-.62.06-1.25.2-1.86.4-1.71,1.58-2.78,3.36-3.03.46-.07.93-.11,1.4-.12,2.67-.08,5.33-.07,8,0,.53.01,1.06.05,1.58.16,1.84.37,2.95,1.53,3.23,3.39.07.46.12.93.12,1.4.02,1.33,0,2.67,0,4ZM16.04,21.63c3.1.01,5.57-2.43,5.59-5.52.02-3.12-2.43-5.59-5.54-5.6-3.12,0-5.58,2.44-5.59,5.55,0,3.1,2.44,5.56,5.54,5.57ZM21.89,11.5c.73,0,1.28-.55,1.28-1.28,0-.69-.58-1.26-1.28-1.26-.73,0-1.27.55-1.27,1.29,0,.72.54,1.25,1.27,1.25Z"/>
  <path class="cls-1" d="M19.73,15.92c.07,2.02-1.48,3.72-3.51,3.81-1.93.08-3.75-1.38-3.82-3.56-.07-1.89,1.36-3.69,3.54-3.77,2.02-.08,3.7,1.48,3.79,3.53Z"/>
</svg>