<?xml version="1.0" encoding="UTF-8"?>
<svg id="Layer_1" xmlns="http://www.w3.org/2000/svg" viewBox="0 0 32 32">
  <path d="M30.33,16.06c.02,7.85-6.39,14.29-14.29,14.27-7.86-.01-14.27-6.41-14.25-14.32.02-7.86,6.43-14.26,14.34-14.23,7.85.04,14.22,6.44,14.2,14.27ZM16.05,15.23c1.62,0,3.25,0,4.87,0,.31,0,.41-.1.37-.4-.03-.24-.04-.48-.06-.72-.07-1.09-.21-2.17-.42-3.24-.03-.15-.07-.24-.26-.22-1.14.12-2.29.1-3.43.15-1.36.06-2.73-.04-4.09-.06-.45,0-.9-.02-1.34-.08-.28-.04-.36.05-.41.3-.24,1.28-.36,2.57-.45,3.87-.02.29.06.4.37.4,1.61-.01,3.23,0,4.84,0ZM16.07,16.9c-1.64,0-3.27,0-4.91,0-.26,0-.35.09-.33.34.05.55.07,1.1.13,1.65.08.8.19,1.59.35,2.37.03.16.09.23.27.21,1.12-.11,2.24-.1,3.37-.15,1.38-.06,2.77.03,4.15.06.45,0,.9.02,1.34.08.26.03.35-.03.4-.27.24-1.29.36-2.59.46-3.9.02-.3-.08-.39-.38-.39-1.61.01-3.23,0-4.84,0ZM16.09,23.01c-.07,0-.15,0-.22,0-1.2-.01-2.39.04-3.59.08-.53.02-.54.03-.38.53.41,1.27.98,2.45,1.75,3.54.39.54.88.97,1.47,1.27.43.22.88.3,1.36.18.66-.17,1.17-.56,1.62-1.05,1.06-1.16,1.64-2.57,2.12-4.03.13-.39.12-.39-.27-.44-.05,0-.1,0-.16,0-1.24-.04-2.47-.1-3.71-.08ZM16.04,9.1c.76,0,1.52,0,2.28,0,.56,0,1.12-.05,1.68-.08.27-.01.35-.1.26-.38-.4-1.27-.96-2.46-1.71-3.56-.41-.59-.92-1.07-1.57-1.4-.42-.21-.86-.29-1.33-.18-.68.16-1.19.56-1.65,1.06-1.04,1.14-1.62,2.53-2.1,3.97-.15.45-.14.46.34.49.02,0,.04,0,.06,0,1.25.05,2.5.09,3.74.06ZM6.32,15.23c.85,0,1.71,0,2.56,0,.19,0,.28-.05.29-.26.03-1.41.19-2.8.45-4.18.04-.22-.02-.27-.22-.29-1.4-.14-2.79-.3-4.18-.52-.14-.02-.21.02-.27.13-.8,1.49-1.26,3.07-1.44,4.75-.03.3.09.37.37.37.81-.02,1.62,0,2.44,0ZM25.78,15.23c.79,0,1.58,0,2.37,0,.48,0,.5-.02.45-.49-.17-1.41-.53-2.78-1.15-4.06q-.33-.69-1.08-.6s-.04,0-.06,0c-1.14.16-2.29.29-3.43.41-.42.04-.42.06-.34.49.24,1.3.38,2.61.41,3.93,0,.25.09.32.33.32.83-.01,1.67,0,2.5,0ZM28.6,17.29c0-.21.05-.4-.26-.4-1.71,0-3.41,0-5.12,0-.18,0-.27.05-.27.25-.03,1.42-.2,2.82-.45,4.21-.03.17-.02.24.18.26,1.42.14,2.83.3,4.24.52.15.02.21-.04.26-.15.79-1.48,1.25-3.05,1.42-4.69ZM3.51,17.24c.02.19.04.37.07.56.21,1.47.65,2.86,1.35,4.16.06.11.11.2.28.18,1.34-.21,2.7-.37,4.05-.51.41-.04.4-.06.33-.47-.24-1.3-.39-2.61-.42-3.93,0-.26-.09-.34-.34-.34-1.65,0-3.31,0-4.96,0-.26,0-.41.06-.35.35ZM12.16,4.11c-2.4.78-4.39,2.14-5.95,4.11-.22.27.09.23.19.25,1.1.14,2.21.25,3.31.39.27.03.39-.06.46-.32.22-.86.54-1.68.92-2.48.32-.67.7-1.3,1.08-1.94ZM19.96,4.09s0,.07,0,.08c.95,1.35,1.57,2.86,2.02,4.43.07.25.23.26.43.24,1.1-.12,2.21-.25,3.31-.38.31-.04.33-.08.13-.32-1.29-1.6-2.88-2.81-4.77-3.63-.37-.16-.74-.32-1.13-.42ZM12.17,28.04c-.02-.06-.02-.09-.03-.11-.94-1.33-1.55-2.82-2-4.38-.07-.25-.22-.3-.44-.27-1.1.13-2.21.25-3.31.38-.31.04-.33.08-.14.32,1.29,1.6,2.88,2.81,4.77,3.64.37.16.74.32,1.15.43ZM19.9,28.07c2.43-.82,4.39-2.16,5.95-4.07.06-.08.19-.15.14-.25-.04-.09-.18-.09-.28-.1-1.08-.13-2.17-.24-3.25-.38-.28-.03-.41.05-.49.33-.35,1.33-.9,2.57-1.61,3.74-.13.22-.27.44-.46.73Z"/>
</svg>