<?xml version="1.0" encoding="UTF-8"?>
<svg id="Layer_1" xmlns="http://www.w3.org/2000/svg" viewBox="0 0 32 32">
  <defs>
    <style>
      .cls-1 {
        fill: #1a60a5;
      }
    </style>
  </defs>
  <path class="cls-1" d="M32,15.97c0,3.6,0,7.19,0,10.79,0,2.64-2.13,4.88-4.91,5.18-.34.04-.68.05-1.02.05-6.8,0-13.6,0-20.4,0-2.93,0-5.28-1.97-5.65-4.71-.02-.17-.02-.35-.02-.52C0,19.58,0,12.4,0,5.22,0,2.69,1.97.5,4.61.07,4.89.02,5.17,0,5.46,0c7,0,14.01,0,21.01,0,2.76,0,5.17,2,5.51,4.59.03.19.02.39.02.58,0,3.6,0,7.19,0,10.79ZM16.08,2.48c-.83-.01-1.65.06-2.45.22-2.51.51-4.7,1.57-6.22,3.56-2.4,3.15-2.77,6.56-1.11,10.14.51,1.1,1.28,2.04,1.98,3.03.64.9.95,1.87.83,2.97-.14,1.27-.58,2.44-1.14,3.58-.41.83-.92,1.62-1.45,2.39-.13.18-.19.29.14.3.31,0,.61.06.92.1.17.03.28-.03.36-.17.98-1.55,1.86-3.15,2.32-4.92.37-1.44.33-2.84-.43-4.18-.42-.74-.97-1.41-1.46-2.12-1.28-1.89-2.01-3.92-1.71-6.2.24-1.81,1-3.41,2.35-4.72,1.61-1.58,3.62-2.43,5.92-2.63,3.03-.27,5.73.43,7.84,2.61,1.65,1.7,2.38,3.74,2.14,6.05-.06.54.03,1.03.33,1.48.67.99,1.34,1.98,2.02,2.97.32.47.22.72-.36.86-.28.07-.56.1-.84.16-.48.11-.67.35-.64.81.01.19.05.39.09.57.1.41.05.75-.39,1-.36.2-.37.5-.07.78.18.17.2.32,0,.46-.37.24-.44.59-.38.97.06.36.05.71.06,1.07,0,.4-.21.68-.59.84-.33.14-.68.16-1.04.14-.95-.05-1.89-.2-2.83-.16-.86.04-1.53.38-1.97,1.1-.21.34-.34.71-.48,1.07-.24.64-.5,1.28-.67,1.94-.11.42.16.87.55.95.38.08.59-.11.73-.62.22-.82.5-1.62.82-2.4.29-.7.72-.89,1.51-.82.99.08,1.98.22,2.97.16.96-.06,1.73-.44,2.15-1.32.28-.57.14-1.14.06-1.72-.03-.23-.01-.42.19-.58.38-.3.49-.66.27-1.09-.08-.15-.07-.3.05-.42.37-.38.43-.82.25-1.3-.08-.22.04-.33.26-.36.16-.03.32-.04.47-.08,1.26-.31,1.94-1.46,1.09-2.57-.5-.65-.91-1.35-1.41-1.99-.61-.77-.88-1.56-.82-2.57.15-2.48-.85-4.62-2.64-6.4-2.05-2.03-4.64-2.91-7.58-2.92ZM14.5,15.13s-.07.02-.1.04c-1.06-1.04-2.12-2.08-3.18-3.12-.12-.11-.08-.23-.04-.36.11-.31.12-.62.02-.92-.26-.74-1.08-1.14-1.86-.91-.76.22-1.2,1.01-.98,1.77.21.72,1.02,1.17,1.79.98.22-.06.36,0,.51.14,1.18,1.14,2.36,2.29,3.56,3.42.22.21.3.42.3.72-.01,1.87-.02,3.74,0,5.61,0,.57-.2,1.03-.61,1.42-.56.54-1.13,1.07-1.69,1.61-.16.15-.33.3-.48.46-.13.13-.14.29-.06.45.08.15.21.22.39.22.19,0,.32-.11.44-.23.74-.69,1.47-1.39,2.21-2.09.51-.48.75-1.07.74-1.75-.01-.57,0-1.15,0-1.72,0-.22.06-.39.23-.55,1.47-1.36,2.94-2.72,4.4-4.09.15-.14.27-.2.48-.11.29.12.6.14.91.06.8-.21,1.26-.97,1.06-1.72-.22-.8-1-1.24-1.85-1.04-.75.17-1.22.95-1.04,1.71.04.17.05.3-.1.44-.55.5-1.09,1.02-1.63,1.53-.05.05-.1.14-.19.11-.11-.04-.07-.15-.07-.23,0-.99,0-1.99,0-2.98,0-.21.08-.37.24-.51.76-.71,1.51-1.41,2.26-2.13.2-.2.4-.3.69-.21.13.04.27.02.41-.02.65-.17,1.04-.77.89-1.41-.14-.64-.78-1.04-1.47-.91-.64.12-1.05.71-.92,1.38.05.24-.02.39-.19.54-.85.8-1.69,1.61-2.55,2.4-.17.16-.24.32-.24.54,0,1.07-.07,2.14.02,3.21.08.95-.2,1.68-1.02,2.22-.1.06-.15.24-.29.17-.1-.05-.05-.2-.05-.3,0-2.77.02-5.53,0-8.3,0-.46.13-.82.51-1.1.23-.18.44-.38.64-.58.24-.25.49-.35.86-.34.95.02,1.67-.87,1.44-1.72-.24-.84-1.1-1.3-1.94-1.03-.84.27-1.23,1.16-.84,1.96.09.19.07.31-.08.45-.37.34-.72.69-1.1,1.03-.25.22-.37.47-.36.8.02.63,0,1.25,0,1.88,0,.08.04.19-.07.23-.1.04-.16-.06-.23-.11-.17-.16-.33-.33-.51-.48-.28-.24-.39-.54-.38-.9.02-.69.02-1.38.01-2.07,0-.23.06-.4.28-.54.49-.34.65-.84.48-1.35-.16-.49-.61-.82-1.14-.83-.52-.01-1,.31-1.18.79-.19.5-.04,1.08.4,1.37.23.15.3.32.29.57-.01.82,0,1.64-.02,2.46,0,.31.1.54.33.75.51.48,1,.98,1.49,1.48.08.08.18.15.18.27,0,.5,0,1.01,0,1.51ZM13.44,20.71s0,0,0,0c0-.68-.01-1.36,0-2.04,0-.32-.08-.6-.31-.83-.4-.4-.8-.8-1.22-1.18-.18-.17-.27-.34-.26-.6.02-.47-.27-.84-.69-.98-.47-.15-.86,0-1.18.32-.33.33-.37.73-.19,1.14.19.44.58.73,1.06.67.48-.06.74.14,1.01.43.2.22.43.42.65.62.2.19.28.4.27.67-.02,1.27-.02,2.55-.02,3.82,0,.12,0,.24.01.36.03.2.17.33.39.35.22.02.35-.1.41-.27.04-.11.05-.23.05-.35,0-.71,0-1.42,0-2.14ZM27.41,25.91c-.08.02-.1.08-.1.12-.11.66-.48,1.08-1.21,1.18-.06,0-.15.03-.15.11,0,.11.12.13.2.15.63.14,1.03.48,1.13,1.11.01.08.03.2.13.2.11,0,.12-.12.13-.2.11-.59.45-.95,1.07-1.08.11-.02.27-.05.27-.16,0-.14-.19-.13-.3-.16-.5-.12-.87-.36-.99-.87-.03-.14-.04-.3-.18-.39ZM6.62,5.53c-.12-.09-.13-.11-.15-.12-.04-.02-.08-.04-.13-.05-.65-.11-1.03-.46-1.14-1.08-.02-.08-.02-.23-.15-.22-.11.01-.12.15-.14.24-.12.5-.36.88-.94.99-.13.03-.36.03-.36.19,0,.15.22.16.35.2.55.14.85.47.95.99.02.1.03.21.22.31.02-.88.6-1.29,1.49-1.45Z"/>
  <path class="cls-1" d="M21.08,15.35c-.33,0-.62-.26-.62-.57,0-.31.28-.59.6-.58.33,0,.62.26.63.57,0,.31-.27.58-.61.58Z"/>
  <path class="cls-1" d="M17.43,7.81c-.32,0-.6-.27-.6-.58,0-.31.29-.58.61-.57.33,0,.61.27.61.58,0,.3-.3.58-.61.58Z"/>
  <path class="cls-1" d="M9.19,11.21c0-.34.25-.58.59-.58.34,0,.61.25.61.57,0,.34-.27.58-.64.57-.34,0-.57-.23-.56-.56Z"/>
</svg>