<?xml version="1.0" encoding="UTF-8"?>
<svg id="Layer_1" xmlns="http://www.w3.org/2000/svg" viewBox="0 0 32 32">
  <path d="M7.43,28.86c-1.38,0-2.25-.86-2.25-2.25v-.79c0-.74,0-1.49,0-2.23.03-3.34,2.65-6.28,5.96-6.71.63-.08,1.26-.09,1.73-.09h2.21c1.27,0,2.54,0,3.8,0h.17c.97,0,1.98,0,2.94.36,2.75,1,4.33,2.95,4.71,5.81.14,1.11.1,2.23.06,3.32l-.02.66c-.03,1.05-.97,1.91-2.09,1.91h-3.95s-13.29,0-13.29,0ZM24.57,27.22c.44,0,.56-.12.56-.56v-3.23c0-.23-.04-.47-.08-.68-.48-2.53-2.68-4.3-5.34-4.3h-4.21c-1.1,0-2.2,0-3.3,0-1.04,0-1.93.23-2.7.7-1.69,1.01-2.59,2.49-2.66,4.39-.03.71-.02,1.43-.02,2.15v.94c0,.5.11.6.61.6h17.14Z"/>
  <path d="M15.97,28.61c-2.85,0-5.69,0-8.54,0-1.24,0-1.99-.75-1.99-1.99,0-1,0-2.01,0-3.01.02-3.23,2.54-6.05,5.74-6.46.58-.07,1.16-.09,1.74-.09,1.99,0,3.98,0,5.98,0,1.02,0,2.05-.01,3.03.34,2.64.96,4.18,2.83,4.54,5.61.17,1.3.08,2.62.04,3.93-.03.93-.88,1.66-1.84,1.66-2.9,0-5.8,0-8.7,0ZM15.98,27.47c2.87,0,5.73,0,8.6,0,.58,0,.82-.24.82-.82,0-1.08,0-2.15,0-3.23,0-.25-.04-.49-.08-.73-.47-2.45-2.59-4.5-5.59-4.5-2.5,0-5.01,0-7.51,0-1,0-1.96.21-2.83.73-1.74,1.04-2.71,2.56-2.79,4.6-.04,1.03-.01,2.06-.01,3.09,0,.64.22.85.86.85,2.85,0,5.7,0,8.54,0Z"/>
  <path d="M16.01,16.43c-1.81,0-3.52-.71-4.76-1.95-1.24-1.24-1.92-2.9-1.91-4.68,0-3.73,2.93-6.65,6.66-6.66,1.69,0,3.36.67,4.6,1.85,1.32,1.25,2.04,2.96,2.04,4.81,0,3.66-2.95,6.63-6.56,6.63,0,0-.07,0-.07,0ZM16.09,14.79c2.63,0,4.84-2.18,4.92-4.85.04-1.34-.45-2.62-1.4-3.6-.94-.98-2.24-1.55-3.56-1.57-2.77,0-5.03,2.21-5.09,4.92-.03,1.36.48,2.65,1.43,3.62.93.95,2.19,1.49,3.48,1.49,0,0,.09,0,.09,0s.12,0,.12,0Z"/>
  <path d="M16.01,16.18c-3.45.03-6.43-2.7-6.42-6.38,0-3.69,2.95-6.4,6.41-6.41,3.26,0,6.39,2.61,6.38,6.41,0,3.77-3.09,6.41-6.37,6.38ZM15.97,15.05c2.81.07,5.2-2.27,5.29-5.1.09-3.04-2.43-5.4-5.21-5.43-2.87-.03-5.28,2.26-5.34,5.17-.06,3.05,2.45,5.42,5.26,5.36Z"/>
</svg>