<?xml version="1.0" encoding="UTF-8"?>
<svg id="Layer_1" xmlns="http://www.w3.org/2000/svg" viewBox="0 0 32 32">
  <defs>
    <style>
      .cls-1 {
        fill: #bcbec0;
      }
    </style>
  </defs>
  <path class="cls-1" d="M17.38,32.06h-2.62c-.4-.06-.8-.11-1.2-.17-6.1-.9-11.33-5.58-12.94-11.55-.26-.98-.42-1.97-.54-2.97,0-.88,0-1.75,0-2.62.08-.54.12-1.1.24-1.63C1.72,6.71,5.57,2.53,11.84.6c.95-.29,1.93-.41,2.91-.53.88,0,1.75,0,2.62,0,.52.08,1.06.12,1.57.23,6.43,1.39,10.62,5.24,12.57,11.52.3.96.41,1.95.54,2.94v2.62c-.05.38-.1.76-.16,1.14-.93,6.2-5.56,11.39-11.62,13.02-.96.26-1.93.4-2.91.53ZM15.92,10.27c-1.43-.03-2.97.08-4.52.2-.73.05-1.44.19-2.06.63-.53.38-.86.86-.95,1.51-.07.52-.15,1.03-.2,1.55-.2,1.86-.09,3.7.23,5.53.09.5.35.88.73,1.2.48.4,1.03.64,1.64.71,1.28.14,2.57.23,3.86.26,1.46.03,2.92.03,4.37-.06.87-.06,1.75-.08,2.61-.25,1.15-.23,1.93-.99,2.1-1.96.41-2.33.4-4.66,0-6.99-.09-.53-.32-.97-.72-1.31-.5-.43-1.1-.68-1.76-.75-1.73-.18-3.46-.28-5.33-.26Z"/>
  <path class="cls-1" d="M14.11,16.06c0-.91,0-1.81,0-2.72,0-.35.05-.37.35-.19,1.47.9,2.93,1.8,4.39,2.7.32.2.32.23,0,.43-1.46.9-2.93,1.8-4.39,2.7-.3.18-.35.16-.35-.2,0-.91,0-1.81,0-2.72Z"/>
</svg>