<?xml version="1.0" encoding="UTF-8"?>
<svg id="Layer_1" xmlns="http://www.w3.org/2000/svg" viewBox="0 0 32 32">
  <path d="M14.75.06c.89.12,1.77.26,2.63.51,1.89.56,3.57,1.48,5.05,2.77,2.43,2.12,3.94,4.77,4.44,7.95.4,2.56.05,5.04-1.02,7.4-.52,1.15-1.2,2.21-2.03,3.17-.28.32-.27.32.03.62,2.57,2.53,5.13,5.05,7.7,7.58.19.19.38.39.51.63,0,.41,0,.81,0,1.22,0,.13-.03.16-.16.16-.41-.01-.81,0-1.22,0-.25-.13-.47-.31-.67-.51-2.24-2.21-4.48-4.42-6.72-6.63-.35-.34-.71-.67-1.05-1.03-.19-.2-.33-.21-.55-.04-1.38,1.06-2.92,1.82-4.6,2.25-3.63.94-7.11.55-10.37-1.33-2.92-1.68-4.94-4.13-6.04-7.33-.31-.9-.51-1.82-.59-2.77,0-.06-.03-.12-.04-.18,0-.79,0-1.58,0-2.38.11-.77.22-1.54.43-2.29.7-2.48,2.01-4.57,3.91-6.3,1.59-1.44,3.42-2.45,5.49-3.03.79-.22,1.6-.34,2.41-.45h2.44ZM2.18,13.3c.02.58.04,1.14.13,1.71.48,2.93,1.9,5.31,4.25,7.11,2.71,2.07,5.8,2.76,9.13,2.14,2.52-.46,4.67-1.68,6.36-3.62,2.42-2.77,3.27-5.99,2.56-9.58-.55-2.76-2.02-4.99-4.3-6.67-2.7-1.99-5.74-2.63-9.02-2.03-2.01.37-3.81,1.25-5.34,2.63-2.48,2.22-3.73,4.99-3.79,8.31Z"/>
</svg>