<?xml version="1.0" encoding="UTF-8"?>
<svg id="Layer_1" xmlns="http://www.w3.org/2000/svg" viewBox="0 0 32 32">
  <defs>
    <style>
      .cls-1 {
        fill: #bcbec0;
      }
    </style>
  </defs>
  <path class="cls-1" d="M.06,17.44c0-.92,0-1.83,0-2.75.06-.44.09-.89.18-1.33C1.57,6.94,5.34,2.7,11.57.67c1.01-.33,2.06-.48,3.12-.6h2.75c.64.09,1.28.15,1.91.3,6.05,1.45,10.07,5.12,12.06,11.01.36,1.08.53,2.2.66,3.32v2.75c-.07.5-.12,1.01-.23,1.51-1.38,6.42-5.22,10.61-11.49,12.57-.95.3-1.93.42-2.91.54h-2.75c-.5-.07-1.01-.12-1.51-.23-6.41-1.38-10.59-5.21-12.57-11.46-.3-.95-.43-1.95-.55-2.94ZM22.43,25.42c.78,0,1.56,0,2.34,0,.11,0,.25.06.31-.06.05-.1-.07-.19-.12-.27-2.32-3.38-4.64-6.77-6.98-10.14-.18-.26-.16-.41.04-.64,1.23-1.41,2.44-2.82,3.65-4.24.89-1.03,1.78-2.07,2.67-3.1.05-.06.15-.11.11-.21-.04-.09-.15-.05-.23-.05-.3,0-.6,0-.91,0-.21,0-.35.08-.48.23-1.82,2.12-3.64,4.24-5.46,6.35q-.29.34-.54-.02c-1.42-2.07-2.85-4.13-4.26-6.21-.17-.25-.35-.36-.66-.36-1.51.02-3.02,0-4.53,0-.05,0-.1,0-.16,0-.19,0-.27.05-.13.23.07.09.13.19.19.28,2.19,3.19,4.39,6.39,6.59,9.58.17.25.15.4-.04.62-1.46,1.68-2.91,3.37-4.37,5.06-.77.89-1.54,1.78-2.3,2.68-.05.06-.15.13-.12.2.04.11.16.06.25.06.28,0,.56-.01.84,0,.24.02.41-.08.56-.26,1.92-2.24,3.84-4.47,5.77-6.71q.3-.35.58.04c1.51,2.2,3.02,4.39,4.53,6.6.16.23.32.34.61.33.75-.02,1.5,0,2.25,0Z"/>
  <path class="cls-1" d="M10.36,7.85c.29,0,.58.01.87,0,.26-.02.42.09.56.3,3.28,4.71,6.57,9.41,9.86,14.11.4.57.8,1.14,1.2,1.72.06.09.19.18.12.3-.06.11-.21.06-.32.06-.56,0-1.13-.01-1.69,0-.32.01-.51-.1-.69-.36-1.82-2.63-3.66-5.24-5.49-7.86-1.83-2.62-3.66-5.24-5.49-7.86-.02-.03-.04-.05-.05-.08-.05-.09-.17-.17-.11-.27.05-.09.17-.05.26-.05.32,0,.65,0,.97,0Z"/>
</svg>