<?xml version="1.0" encoding="UTF-8"?>
<svg id="Layer_1" xmlns="http://www.w3.org/2000/svg" viewBox="0 0 32 32">
  <defs>
    <style>
      .cls-1 {
        fill: #333;
      }
    </style>
  </defs>
  <path class="cls-1" d="M9.61,15.17c.1,0,.18,0,.26,0,4.52,0,9.04,0,13.56,0,.29,0,.57.05.77.28.22.25.28.54.15.86-.14.34-.4.5-.76.53-.08,0-.16,0-.24,0-4.5,0-8.99,0-13.49,0-.08,0-.16-.02-.25.02.02.08.09.12.14.17,1.31,1.31,2.62,2.62,3.93,3.93.3.3.38.66.22.99-.21.45-.77.62-1.19.34-.08-.05-.16-.12-.23-.19-1.8-1.8-3.61-3.6-5.41-5.41-.47-.47-.46-.92,0-1.38,1.8-1.8,3.61-3.6,5.41-5.41.19-.19.39-.34.68-.34.34,0,.59.16.74.45.15.29.11.58-.08.85-.06.08-.13.15-.2.22-1.3,1.3-2.59,2.6-3.89,3.89-.05.05-.11.09-.14.19Z"/>
</svg>