<?xml version="1.0" encoding="UTF-8"?>
<svg id="Layer_1" xmlns="http://www.w3.org/2000/svg" viewBox="0 0 32 32">
  <path d="M32.06,16.5c-.34.87-.98,1.21-1.9,1.21-9.4-.01-18.8-.01-28.2,0-.92,0-1.56-.34-1.9-1.21v-.88c.34-.87.98-1.21,1.9-1.21,9.4.01,18.8.01,28.2,0,.92,0,1.56.34,1.9,1.21v.88Z"/>
  <path d="M.06,4.44c.32-.86.94-1.22,1.86-1.22,9.43.01,18.86.01,28.29,0,.92,0,1.53.36,1.86,1.22v.88c-.35.88-1.02,1.21-1.94,1.21-9.37-.01-18.74-.01-28.12,0-.93,0-1.59-.33-1.94-1.21v-.88Z"/>
  <path d="M32.06,27.69c-.32.86-.94,1.22-1.86,1.22-9.43-.01-18.86-.01-28.29,0-.92,0-1.53-.36-1.86-1.22v-.88c.35-.88,1.02-1.21,1.94-1.21,9.37.01,18.74.01,28.12,0,.93,0,1.59.33,1.94,1.21v.88Z"/>
</svg>