<?xml version="1.0" encoding="UTF-8"?>
<svg id="Layer_1" xmlns="http://www.w3.org/2000/svg" viewBox="0 0 32 32">
  <defs>
    <style>
      .cls-1 {
        fill: #bcbec0;
      }
    </style>
  </defs>
  <path class="cls-1" d="M17.31,32.06h-2.5c-.25-.03-.49-.07-.74-.1-6.66-.79-12.27-5.91-13.66-12.46-.15-.72-.23-1.46-.35-2.19,0-.83,0-1.67,0-2.5.06-.42.11-.84.18-1.27C1.2,7.13,6.27,1.76,12.63.41c.72-.15,1.46-.23,2.19-.35.83,0,1.67,0,2.5,0,.33.04.66.08.99.13,6.72.94,12.15,6.08,13.48,12.74.12.62.18,1.26.29,1.88v2.5c-.06.41-.11.82-.17,1.23-.95,6.33-5.86,11.65-12.09,13.1-.82.19-1.66.29-2.49.41ZM13.52,18.72c0,1.48,0,2.96,0,4.44,0,.78.11.89.88.89.57,0,1.15,0,1.72,0,.62,0,.75-.13.75-.75,0-1.57,0-3.15,0-4.72,0-.6.13-1.18.46-1.7.38-.61.95-.85,1.65-.79.72.06,1.18.46,1.41,1.14.14.41.18.83.18,1.26,0,1.64,0,3.27,0,4.91,0,.48.16.64.64.64.71,0,1.42,0,2.12,0,.49,0,.66-.17.66-.66,0-1.81.01-3.62,0-5.44-.01-.87-.11-1.73-.42-2.55-.33-.88-.89-1.55-1.78-1.91-1.21-.49-3.66-.51-4.68.95-.03.05-.08.12-.15.1-.07-.02-.07-.1-.07-.16,0-.14,0-.27,0-.41-.01-.46-.14-.6-.6-.6-.66,0-1.31,0-1.97,0-.66,0-.78.12-.78.78,0,1.52,0,3.04,0,4.56ZM8.63,18.7c0,1.51,0,3.02,0,4.53,0,.68.14.82.83.82.58,0,1.17,0,1.75,0,.59,0,.77-.17.77-.76,0-1.32,0-2.65,0-3.97,0-1.73,0-3.46,0-5.19,0-.6-.16-.75-.76-.75-.61,0-1.23,0-1.84,0-.6,0-.74.14-.74.73,0,1.53,0,3.06,0,4.59ZM12.44,10.27c0-1.22-.95-2.19-2.16-2.19-1.17,0-2.14.97-2.15,2.15,0,1.2.95,2.18,2.14,2.19,1.2,0,2.16-.95,2.17-2.15Z"/>
</svg>