<?xml version="1.0" encoding="UTF-8"?>
<svg id="Layer_1" xmlns="http://www.w3.org/2000/svg" viewBox="0 0 32 32">
  <path d="M23.75,32.06c-.83-.12-1.66-.27-2.47-.51-2.06-.61-3.97-1.56-5.81-2.63-2.86-1.66-5.4-3.72-7.64-6.14-2.54-2.74-4.7-5.75-6.2-9.2-.71-1.63-1.31-3.29-1.49-5.07-.2-1.98.18-3.77,1.72-5.18.68-.63,1.32-1.3,1.97-1.96.6-.62,1.28-1.1,2.12-1.31h1.19c.84.21,1.48.72,2.08,1.32,1.18,1.19,2.37,2.37,3.55,3.56.36.36.7.74.92,1.22.53,1.16.38,2.27-.41,3.25-.75.93-1.64,1.75-2.51,2.57-.19.18-.21.32-.1.56.74,1.51,1.76,2.82,2.88,4.06,1.41,1.56,2.96,2.95,4.72,4.11.45.3.95.53,1.41.8.17.1.26.03.37-.08.67-.68,1.35-1.36,2.03-2.03.48-.47.99-.89,1.65-1.08,1.17-.34,2.2-.04,3.05.78,1.46,1.41,2.91,2.83,4.3,4.31,1.37,1.45,1.26,3.27-.21,4.76-.79.8-1.6,1.58-2.37,2.4-.79.83-1.77,1.3-2.89,1.48-.04,0-.08.03-.12.04h-1.75ZM24.5,30.42c1.28,0,2.24-.38,2.99-1.22.69-.77,1.44-1.47,2.16-2.21.11-.11.21-.23.31-.35.52-.68.49-1.36-.06-2.02-.4-.48-.88-.89-1.32-1.33-.98-.98-1.95-1.97-2.94-2.93-.62-.61-1.36-.61-2.02-.05-.13.11-.25.23-.36.34-.74.74-1.48,1.49-2.23,2.23-.57.56-1.1.67-1.76.34-.64-.32-1.28-.65-1.89-1.04-1.98-1.29-3.72-2.85-5.27-4.61-1.18-1.34-2.26-2.75-3.02-4.38-.54-1.16-.49-1.49.44-2.38.78-.75,1.56-1.5,2.29-2.3.57-.63.58-1.31.06-1.98-.08-.11-.17-.21-.27-.3-1.29-1.29-2.57-2.58-3.87-3.87-.84-.83-1.64-.83-2.48-.01-.79.78-1.58,1.57-2.36,2.36-.37.37-.68.79-.86,1.29-.37,1.02-.29,2.05-.1,3.08.28,1.54.83,2.99,1.5,4.39,2.04,4.26,4.94,7.87,8.53,10.92,2.53,2.15,5.33,3.85,8.41,5.08,1.37.55,2.79.9,4.12.95Z"/>
</svg>